<?xml version="1.0" encoding="UTF-8" standalone="no"?>
<svg
   xml:space="preserve"
   width="1024"
   height="1024"
   version="1.1"
   id="svg4"
   sodipodi:docname="DefaultProjectIcon2.svg"
   inkscape:version="1.3.2 (091e20e, 2023-11-25, custom)"
   xmlns:inkscape="http://www.inkscape.org/namespaces/inkscape"
   xmlns:sodipodi="http://sodipodi.sourceforge.net/DTD/sodipodi-0.dtd"
   xmlns="http://www.w3.org/2000/svg"
   xmlns:svg="http://www.w3.org/2000/svg"><defs
     id="defs4" /><sodipodi:namedview
     id="namedview4"
     pagecolor="#505050"
     bordercolor="#eeeeee"
     borderopacity="1"
     inkscape:showpageshadow="0"
     inkscape:pageopacity="0"
     inkscape:pagecheckerboard="0"
     inkscape:deskcolor="#505050"
     inkscape:zoom="0.6535904"
     inkscape:cx="193.54629"
     inkscape:cy="470.47815"
     inkscape:window-width="3840"
     inkscape:window-height="2089"
     inkscape:window-x="-8"
     inkscape:window-y="-8"
     inkscape:window-maximized="1"
     inkscape:current-layer="svg4" /><g
     paint-order="markers stroke fill"
     id="g4"
     style="fill:#0f1014;fill-opacity:1;stroke:#0a0b0d;stroke-opacity:1"><path
       fill="#230d26"
       stroke="#390054"
       stroke-linecap="round"
       stroke-linejoin="round"
       stroke-width="67.437"
       d="m 128,0 h 768 a 128,128 45 0 1 128,128 V 896 A 128,128 135 0 1 896,1024 H 128 A 128,128 45 0 1 0,896 V 128 A 128,128 135 0 1 128,0 Z"
       transform="translate(31.635 31.635)scale(.93821)"
       id="path1"
       style="fill:#0f1014;fill-opacity:1;stroke:#0a0b0d;stroke-opacity:1" /></g><g
     id="g13"
     style="display:inline;stroke:#21294d;stroke-opacity:1"
     transform="matrix(2.250938,0,0,2.250938,-669.18203,-526.33104)"><path
       style="display:inline;fill:#646464;fill-opacity:1;stroke:#21294d;stroke-width:6;stroke-linecap:round;paint-order:stroke fill markers;stroke-opacity:1"
       d="m 583.67459,312.6635 42.73429,11.90068 -2.33861,15.90993 20.20464,-27.38311 -63.03455,-37.48191 -74.37929,44.08663 -63.29002,148.75859 c 0,0 -32.99736,6.76175 -53.28262,12.98256 -20.28526,6.22082 -55.17591,19.74432 -55.17591,19.74432 0,0 26.25837,47.92815 180.67406,54.09403 140.62214,-4.07895 182.14931,-32.88431 197.89803,-52.30164 -41.1478,-17.5026 -72.30703,-25.51563 -111.34758,-33.16692 L 556.62758,358.37295 Z"
       id="path5"
       sodipodi:nodetypes="cccccccscccccc" /><path
       style="display:inline;fill:#1e1e1e;fill-opacity:1;stroke:#21294d;stroke-width:6;stroke-linecap:round;paint-order:stroke fill markers;stroke-opacity:1"
       d="m 442.15075,466.1904 c 0,0 45.54001,20.1616 82.83401,20.54411 37.294,0.3825 79.17803,-17.97762 79.17803,-17.97762 -76.09574,18.8503 -82.41137,17.46894 -162.01204,-2.56649 z"
       id="path8"
       sodipodi:nodetypes="cccc" /><path
       style="display:inline;fill:#1e1e1e;fill-opacity:1;stroke:#21294d;stroke-width:6;stroke-linecap:round;paint-order:stroke fill markers;stroke-opacity:1"
       d="m 582.1689,276.16685 c 0,0 -44.56155,52.2116 -54.69787,51.82909 -10.13632,-0.3825 -20.27264,-8.41505 -20.27264,-8.41505 0,0 14.1526,22.56765 15.30011,35.76399 1.14751,13.19633 -0.57375,123.16582 -0.57375,123.16582 18.50613,3.40297 77.67387,-8.86346 78.37244,-12.14512 0.70904,-3.33084 -44.90347,-109.29944 -44.90347,-109.29944 l 29.07019,-42.84029 41.31028,11.09258 -1.76908,15.39573 20.5117,-27.63582 z"
       id="path10"
       sodipodi:nodetypes="cscscscccccc" /><path
       style="display:inline;fill:#fdff1e;fill-opacity:1;stroke:#21294d;stroke-width:6;stroke-linecap:round;paint-order:stroke fill markers;stroke-opacity:1"
       d="m 504.60837,412.33776 12.62258,-2.29502 4.20753,-14.34384 4.78128,14.72635 12.62258,1.91251 -11.09257,6.50254 5.35504,13.96135 -11.85758,-7.84131 -11.47508,7.65005 4.39878,-12.62258 z"
       id="path9" /><path
       style="fill:#1e1e1e;fill-opacity:1;stroke:#21294d;stroke-width:6;stroke-linecap:round;paint-order:stroke fill markers;stroke-opacity:1"
       d="m 603.95985,470.3476 c -8.93962,6.92006 -52.29572,35.26465 -99.26254,28.53459 -51.84415,-7.42894 -71.14386,-29.24262 -74.19334,-27.58795 -3.21813,2.54196 33.20411,22.64409 48.09296,29.48125 23.71617,10.89078 36.0037,15.90449 51.78145,21.65683 16.33785,6.26079 21.57465,11.15642 20.8398,17.29087 -1.36175,11.36776 -34.39766,17.98487 -123.90067,2.31307 -60.87875,-10.65975 -90.49617,-41.83079 -91.79929,-40.5846 0.28934,2.2593 13.10206,16.52423 45.27095,30.18063 35.45835,15.05284 98.64647,22.54355 134.86218,23.77817 33.45801,0.40571 90.59217,-6.5825 105.88906,-9.60169 57.47607,-11.34423 90.08174,-36.72255 91.68938,-42.73428 -40.10691,-17.41967 -75.55133,-27.00194 -109.26994,-32.72689 z"
       id="path11"
       sodipodi:nodetypes="cscscsscscscc" /></g><text
     xml:space="preserve"
     style="font-style:normal;font-variant:normal;font-weight:900;font-stretch:normal;font-size:140.006px;font-family:'Inter Alia';-inkscape-font-specification:'Inter Alia Heavy';letter-spacing:11.6673px;fill:#dd5185;fill-opacity:1;stroke:none;stroke-width:8.75042;stroke-linecap:round;stroke-opacity:1;paint-order:stroke fill markers"
     x="217.3259"
     y="904.66498"
     id="text30"><tspan
       id="tspan30"
       x="217.3259"
       y="904.66498"
       sodipodi:role="line"
       style="stroke-width:8.75042;fill:#dd5185;fill-opacity:1">MERLIN</tspan></text><text
     xml:space="preserve"
     style="font-style:normal;font-variant:normal;font-weight:200;font-stretch:normal;font-size:62.2253px;font-family:'Inter Alia';-inkscape-font-specification:'Inter Alia Ultra-Light';letter-spacing:11.6673px;fill:#dd5185;fill-opacity:1;stroke:none;stroke-width:8.75042;stroke-linecap:round;stroke-opacity:1;paint-order:stroke fill markers"
     x="384.06128"
     y="962.98016"
     id="text31"><tspan
       sodipodi:role="line"
       id="tspan31"
       x="384.06128"
       y="962.98016"
       style="stroke-width:8.75042;fill:#dd5185;fill-opacity:1">Engine</tspan></text><path
     sodipodi:type="star"
     style="fill:#ffff00;fill-opacity:1;stroke:#21284d;stroke-width:6;stroke-linecap:round;stroke-opacity:1;paint-order:stroke fill markers"
     id="path50"
     inkscape:flatsided="false"
     sodipodi:sides="5"
     sodipodi:cx="675.49951"
     sodipodi:cy="765.00513"
     sodipodi:r1="15.300102"
     sodipodi:r2="7.6500511"
     sodipodi:arg1="0.64350111"
     sodipodi:arg2="1.2718196"
     inkscape:rounded="0"
     inkscape:randomized="0"
     d="m 687.73959,774.18519 -9.98681,-1.86938 -7.20163,7.16712 -1.30821,-10.0757 -9.04177,-4.63439 9.1783,-4.35774 1.61351,-10.03134 6.98071,7.38246 10.03897,-1.56531 -4.86398,8.92036 z"
     inkscape:transform-center-x="1.3925942"
     inkscape:transform-center-y="-0.071780344"
     transform="translate(-0.4455745,11.196338)" /></svg>
