<?xml version="1.0" encoding="UTF-8" standalone="no"?>
<svg
   xml:space="preserve"
   width="1024"
   height="1024"
   version="1.1"
   id="svg4"
   sodipodi:docname="DefaultProjectIcon.svg"
   inkscape:version="1.3.2 (091e20e, 2023-11-25, custom)"
   xmlns:inkscape="http://www.inkscape.org/namespaces/inkscape"
   xmlns:sodipodi="http://sodipodi.sourceforge.net/DTD/sodipodi-0.dtd"
   xmlns="http://www.w3.org/2000/svg"
   xmlns:svg="http://www.w3.org/2000/svg"><defs
     id="defs4" /><sodipodi:namedview
     id="namedview4"
     pagecolor="#505050"
     bordercolor="#eeeeee"
     borderopacity="1"
     inkscape:showpageshadow="0"
     inkscape:pageopacity="0"
     inkscape:pagecheckerboard="0"
     inkscape:deskcolor="#505050"
     inkscape:zoom="0.92431641"
     inkscape:cx="152.00423"
     inkscape:cy="538.2356"
     inkscape:window-width="3840"
     inkscape:window-height="2089"
     inkscape:window-x="-8"
     inkscape:window-y="-8"
     inkscape:window-maximized="1"
     inkscape:current-layer="svg4" /><g
     paint-order="markers stroke fill"
     id="g4"><path
       fill="#230d26"
       stroke="#390054"
       stroke-linecap="round"
       stroke-linejoin="round"
       stroke-width="67.437"
       d="m 128,0 h 768 a 128,128 45 0 1 128,128 V 896 A 128,128 135 0 1 896,1024 H 128 A 128,128 45 0 1 0,896 V 128 A 128,128 135 0 1 128,0 Z"
       transform="translate(31.635 31.635)scale(.93821)"
       id="path1"
       style="fill:#2a233d;fill-opacity:1;stroke:#1e1e2e;stroke-opacity:1" /></g><path
     style="fill:#969696;fill-opacity:1;stroke:none;stroke-width:8.75042;stroke-linecap:round;stroke-opacity:1;paint-order:stroke fill markers"
     d="m 376.09137,444.66293 -1.11013,38.01412 23.39125,57.77258 105.0987,52.77633 1.22207,145.81242 -272.57464,58.81946 576.75952,0.0677 -276.24075,-57.77044 0.2672,-145.78822 112.5598,-50.94371 29.47817,-45.26575 0.62962,-47.46471 z"
     id="path30"
     sodipodi:nodetypes="ccccccccccccc" /><g
     id="g29"
     transform="matrix(1.4584036,0,0,1.4584036,-238.79958,-344.90361)"><path
       style="fill:#646464;fill-opacity:1;stroke:none;stroke-width:6;stroke-linecap:round;paint-order:stroke fill markers"
       d="m 418.84293,544.78726 6.35605,0.81141 -0.67617,20.08241 13.75959,39.3264 74.09442,38.63671 -0.46295,101.29442 -178.72122,36.55935 174.95782,-44.98927 -0.74846,-54.45069 -103.63967,-41.21968 -4.46275,-19.87956 4.66559,-0.87903 3.58373,16.90439 99.51499,38.24451 -0.20285,-8.23485 -38.98354,-25.08634 -24.71737,-4.50319 0.89336,-4.18409 25.50881,3.70279 37.77206,23.51193 -0.13523,-13.6282 -74.24957,-38.16589 -14.6476,-39.10562 z"
       id="path25"
       sodipodi:nodetypes="cccccccccccccccccccccccc" /><path
       style="fill:#646464;fill-opacity:1;stroke:none;stroke-width:6;stroke-linecap:round;paint-order:stroke fill markers"
       d="m 623.61645,546.69266 6.01965,-0.68169 -0.88592,33.94429 -15.94698,32.39008 -81.35419,35.02266 -0.33261,27.5057 11.03453,-23.30363 30.12938,-10.38146 0.0887,5.35154 -25.36729,9.92711 -15.68831,32.14757 -1.1118,49.49074 174.89402,42.79731 -179.41907,-36.53551 0.28624,-100.73712 78.6787,-34.4782 18.26791,-32.27251 z"
       id="path26"
       sodipodi:nodetypes="cccccccccccccccccc" /><path
       style="fill:#646464;fill-opacity:1;stroke:none;stroke-width:6;stroke-linecap:round;paint-order:stroke fill markers"
       d="m 609.31511,646.54549 3.84621,4.49157 -11.40944,13.21356 -47.92874,4.08569 -7.32764,20.71698 77.14947,-13.18419 1.41593,4.83915 -79.99989,13.97639 c -7.26042,18.212 -8.61254,19.09445 -15.59369,37.7692 l 0.54016,-17.70824 18.65187,-51.52671 49.93979,-4.0799 z"
       id="path27"
       sodipodi:nodetypes="ccccccccccccc" /><path
       style="fill:#646464;fill-opacity:1;stroke:none;stroke-width:6;stroke-linecap:round;paint-order:stroke fill markers"
       d="m 510.46792,725.01318 -17.03962,-38.03858 -85.37345,-32.47205 -15.87386,-0.19125 0.19125,5.73754 h 13.38759 l 81.16593,29.41202 21.27433,47.91473 z"
       id="path28"
       sodipodi:nodetypes="ccccccccc" /><circle
       style="fill:#1e1e1e;fill-opacity:1;stroke:#646464;stroke-width:6;stroke-linecap:round;stroke-opacity:1;paint-order:stroke fill markers"
       id="path29"
       cy="657.35974"
       cx="382.82129"
       r="7.4587998" /><circle
       style="fill:#1e1e1e;fill-opacity:1;stroke:#646464;stroke-width:6;stroke-linecap:round;stroke-opacity:1;paint-order:stroke fill markers"
       id="path29-9"
       cy="612.05078"
       cx="399.37872"
       r="7.4587998" /><circle
       style="fill:#1e1e1e;fill-opacity:1;stroke:#646464;stroke-width:6;stroke-linecap:round;stroke-opacity:1;paint-order:stroke fill markers"
       id="path29-7"
       cy="631.62982"
       cx="435.21268"
       r="7.4587998" /><circle
       style="fill:#1e1e1e;fill-opacity:1;stroke:#646464;stroke-width:6;stroke-linecap:round;stroke-opacity:1;paint-order:stroke fill markers"
       id="path29-5"
       cy="643.62219"
       cx="618.67938"
       r="7.4587998" /><circle
       style="fill:#1e1e1e;fill-opacity:1;stroke:#646464;stroke-width:8.75042;stroke-linecap:round;stroke-opacity:1;paint-order:stroke fill markers"
       id="path29-5-7"
       cy="643.08118"
       cx="582.37823"
       r="6.9833574" /><circle
       style="fill:#1e1e1e;fill-opacity:1;stroke:#646464;stroke-width:6;stroke-linecap:round;stroke-opacity:1;paint-order:stroke fill markers"
       id="path29-76"
       cy="675.20636"
       cx="632.70013"
       r="7.4587998" /><circle
       style="fill:#1e1e1e;fill-opacity:1;stroke:#646464;stroke-width:12.2539;stroke-linecap:round;stroke-opacity:1;paint-order:stroke fill markers"
       id="path29-3"
       cy="566.65436"
       cx="493.24002"
       r="15.23319" /><circle
       style="fill:#ffee1e;fill-opacity:1;stroke:#646464;stroke-width:6;stroke-linecap:round;stroke-opacity:1;paint-order:stroke fill markers"
       id="path29-8"
       cy="568.87164"
       cx="493.08133"
       r="7.4587998" /><circle
       style="fill:#1e1e1e;fill-opacity:1;stroke:#646464;stroke-width:17.8711;stroke-linecap:round;stroke-opacity:1;paint-order:stroke fill markers"
       id="path29-3-2"
       cy="567.74884"
       cx="548.55786"
       r="22.216139" /><circle
       style="fill:#ffee1e;fill-opacity:1;stroke:#646464;stroke-width:8.75042;stroke-linecap:round;stroke-opacity:1;paint-order:stroke fill markers"
       id="path29-8-9"
       cy="568.77246"
       cx="548.88281"
       r="10.87794" /></g><g
     id="g13"
     style="display:inline"
     transform="matrix(1.4584036,0,0,1.4584036,-238.79958,-344.90361)"><path
       style="display:inline;fill:#646464;fill-opacity:1;stroke:#ffffff;stroke-width:6;stroke-linecap:round;paint-order:stroke fill markers"
       d="m 583.67459,312.6635 42.73429,11.90068 -2.33861,15.90993 20.20464,-27.38311 -63.03455,-37.48191 -74.37929,44.08663 -63.29002,148.75859 c 0,0 -32.99736,6.76175 -53.28262,12.98256 -20.28526,6.22082 -55.17591,19.74432 -55.17591,19.74432 0,0 26.25837,47.92815 180.67406,54.09403 140.62214,-4.07895 182.14931,-32.88431 197.89803,-52.30164 -41.1478,-17.5026 -72.30703,-25.51563 -111.34758,-33.16692 L 556.62758,358.37295 Z"
       id="path5"
       sodipodi:nodetypes="cccccccscccccc" /><path
       style="display:inline;fill:#1e1e1e;fill-opacity:1;stroke:#ffffff;stroke-width:6;stroke-linecap:round;paint-order:stroke fill markers"
       d="m 442.15075,466.1904 c 0,0 45.54001,20.1616 82.83401,20.54411 37.294,0.3825 79.17803,-17.97762 79.17803,-17.97762 -76.09574,18.8503 -82.41137,17.46894 -162.01204,-2.56649 z"
       id="path8"
       sodipodi:nodetypes="cccc" /><path
       style="display:inline;fill:#1e1e1e;fill-opacity:1;stroke:#ffffff;stroke-width:6;stroke-linecap:round;paint-order:stroke fill markers"
       d="m 582.1689,276.16685 c 0,0 -44.56155,52.2116 -54.69787,51.82909 -10.13632,-0.3825 -20.27264,-8.41505 -20.27264,-8.41505 0,0 14.1526,22.56765 15.30011,35.76399 1.14751,13.19633 -0.57375,123.16582 -0.57375,123.16582 18.50613,3.40297 77.67387,-8.86346 78.37244,-12.14512 0.70904,-3.33084 -44.90347,-109.29944 -44.90347,-109.29944 l 29.07019,-42.84029 41.31028,11.09258 -1.76908,15.39573 20.5117,-27.63582 z"
       id="path10"
       sodipodi:nodetypes="cscscscccccc" /><path
       style="display:inline;fill:#fdff1e;fill-opacity:1;stroke:#ffffff;stroke-width:6;stroke-linecap:round;paint-order:stroke fill markers"
       d="m 504.60837,412.33776 12.62258,-2.29502 4.20753,-14.34384 4.78128,14.72635 12.62258,1.91251 -11.09257,6.50254 5.35504,13.96135 -11.85758,-7.84131 -11.47508,7.65005 4.39878,-12.62258 z"
       id="path9" /><path
       style="fill:#1e1e1e;fill-opacity:1;stroke:#ffffff;stroke-width:6;stroke-linecap:round;paint-order:stroke fill markers"
       d="m 603.95985,470.3476 c -8.93962,6.92006 -52.29572,35.26465 -99.26254,28.53459 -51.84415,-7.42894 -71.14386,-29.24262 -74.19334,-27.58795 -3.21813,2.54196 33.20411,22.64409 48.09296,29.48125 23.71617,10.89078 36.0037,15.90449 51.78145,21.65683 16.33785,6.26079 21.57465,11.15642 20.8398,17.29087 -1.36175,11.36776 -34.39766,17.98487 -123.90067,2.31307 -60.87875,-10.65975 -90.49617,-41.83079 -91.79929,-40.5846 0.28934,2.2593 13.10206,16.52423 45.27095,30.18063 35.45835,15.05284 98.64647,22.54355 134.86218,23.77817 33.45801,0.40571 90.59217,-6.5825 105.88906,-9.60169 57.47607,-11.34423 90.08174,-36.72255 91.68938,-42.73428 -40.10691,-17.41967 -75.55133,-27.00194 -109.26994,-32.72689 z"
       id="path11"
       sodipodi:nodetypes="cscscsscscscc" /></g><text
     xml:space="preserve"
     style="font-style:normal;font-variant:normal;font-weight:900;font-stretch:normal;font-size:140.006px;font-family:'Inter Alia';-inkscape-font-specification:'Inter Alia Heavy';letter-spacing:11.6673px;fill:#969696;fill-opacity:1;stroke:none;stroke-width:8.75042;stroke-linecap:round;stroke-opacity:1;paint-order:stroke fill markers"
     x="225.3259"
     y="904.66498"
     id="text30"><tspan
       id="tspan30"
       x="225.3259"
       y="904.66498"
       sodipodi:role="line"
       style="stroke-width:8.75042">MERLIN</tspan></text><text
     xml:space="preserve"
     style="font-style:normal;font-variant:normal;font-weight:200;font-stretch:normal;font-size:62.2253px;font-family:'Inter Alia';-inkscape-font-specification:'Inter Alia Ultra-Light';letter-spacing:11.6673px;fill:#969696;fill-opacity:1;stroke:none;stroke-width:8.75042;stroke-linecap:round;stroke-opacity:1;paint-order:stroke fill markers"
     x="394.06128"
     y="960.98016"
     id="text31"><tspan
       sodipodi:role="line"
       id="tspan31"
       x="394.06128"
       y="960.98016"
       style="stroke-width:8.75042">Engine</tspan></text><path
     style="fill:#ffffff;fill-opacity:1;stroke:#646464;stroke-width:6;stroke-linecap:round;stroke-opacity:1;paint-order:stroke fill markers"
     d="m 455.74221,542.29265 15.95774,-0.0676 -0.27047,-11.56259 30.02218,0.27047 v 18.93291 l 19.74432,0.27047 0.27047,-8.11411 29.00793,0.54094 0.20285,11.29213 21.90808,0.0676 v 7.84363 l -28.60221,-0.0676 -0.33809,-12.71209 -16.43106,-0.27047 v 8.72266 l -31.9831,-0.81141 -0.27047,-17.31009 -14.87586,-0.27047 v 9.46646 l -24.27469,0.47332 z"
     id="path31"
     sodipodi:nodetypes="ccccccccccccccccccccc" /><path
     style="fill:#ff0000;fill-opacity:1;stroke:#646464;stroke-width:2.29502;stroke-linecap:round;stroke-opacity:1;paint-order:stroke fill markers"
     d="m 392.52602,586.4397 c -2.85383,-1.01788 -4.65748,-2.61999 -6.14169,-5.45543 -1.17932,-2.25296 -1.26842,-2.66363 -1.11235,-5.12667 0.38817,-6.12586 4.5974,-10.21598 10.56976,-10.27067 7.53012,-0.069 12.62347,7.14722 10.156,14.38884 -1.79585,5.27053 -8.20104,8.34384 -13.47172,6.46393 z"
     id="path44" /><path
     style="fill:#ff0000;fill-opacity:1;stroke:#646464;stroke-width:2.29502;stroke-linecap:round;stroke-opacity:1;paint-order:stroke fill markers"
     d="m 340.38225,557.94908 c -2.30845,-0.86399 -4.17667,-2.19905 -5.3566,-3.82789 -5.19975,-7.17805 -0.1817,-17.0876 8.6529,-17.0876 6.02946,0 10.67632,4.66156 10.67632,10.71007 0,5.85775 -4.19159,10.24857 -10.10257,10.58277 -1.49821,0.0847 -3.03619,-0.0653 -3.87005,-0.37735 z"
     id="path45" /><path
     style="fill:#ff0000;fill-opacity:1;stroke:#646464;stroke-width:2.29502;stroke-linecap:round;stroke-opacity:1;paint-order:stroke fill markers"
     d="m 316.02551,623.90213 c -2.74095,-0.94674 -4.64937,-2.57475 -5.92046,-5.05057 -2.15834,-4.20398 -1.67317,-8.59727 1.32566,-12.00412 4.23457,-4.81072 11.93701,-4.94897 16.02965,-0.28772 3.97703,4.52959 3.58687,11.17852 -0.89228,15.20566 -3.06488,2.75559 -6.64827,3.48186 -10.54257,2.13675 z"
     id="path46" /><path
     style="fill:#ff0000;fill-opacity:1;stroke:#646464;stroke-width:2.29502;stroke-linecap:round;stroke-opacity:1;paint-order:stroke fill markers"
     d="m 608.05373,602.6629 c -7.36289,-1.99641 -9.97518,-10.76249 -4.88875,-16.40525 4.73868,-5.25696 13.22413,-4.0943 16.32141,2.23632 2.02473,4.1384 1.15726,8.83093 -2.19185,11.85665 -2.63734,2.38267 -5.93653,3.20821 -9.24081,2.31228 z"
     id="path47" /><path
     style="fill:#ff0000;fill-opacity:1;stroke:#646464;stroke-width:2.29502;stroke-linecap:round;stroke-opacity:1;paint-order:stroke fill markers"
     d="m 659.19076,603.61869 c -6.92559,-3.14481 -8.59489,-12.04586 -3.27156,-17.44457 5.07166,-5.14346 13.78963,-3.77699 17.09008,2.67873 0.98036,1.91759 1.14516,2.65413 1.10898,4.9561 -0.0251,1.59764 -0.30252,3.2941 -0.67807,4.1467 -0.94913,2.15475 -3.24558,4.49328 -5.39947,5.49842 -2.46564,1.15062 -6.51277,1.2259 -8.84996,0.16462 z"
     id="path48" /><path
     style="fill:#ff0000;fill-opacity:1;stroke:#646464;stroke-width:2.29502;stroke-linecap:round;stroke-opacity:1;paint-order:stroke fill markers"
     d="m 681.23706,650.27916 c -6.91442,-2.11089 -10.03098,-9.49059 -6.64571,-15.73635 1.82939,-3.37518 5.0714,-5.24597 9.17951,-5.297 4.48671,-0.0557 7.73497,1.88434 9.68345,5.78359 2.15864,4.31982 1.39119,8.94308 -2.05274,12.36608 -2.7515,2.73478 -6.84667,3.89658 -10.16451,2.88368 z"
     id="path49" /><path
     sodipodi:type="star"
     style="fill:#ffff00;fill-opacity:1;stroke:#ffffff;stroke-width:6;stroke-linecap:round;stroke-opacity:1;paint-order:stroke fill markers"
     id="path50"
     inkscape:flatsided="false"
     sodipodi:sides="5"
     sodipodi:cx="675.49951"
     sodipodi:cy="765.00513"
     sodipodi:r1="15.300102"
     sodipodi:r2="7.6500511"
     sodipodi:arg1="0.64350111"
     sodipodi:arg2="1.2718196"
     inkscape:rounded="0"
     inkscape:randomized="0"
     d="m 687.73959,774.18519 -9.98681,-1.86938 -7.20163,7.16712 -1.30821,-10.0757 -9.04177,-4.63439 9.1783,-4.35774 1.61351,-10.03134 6.98071,7.38246 10.03897,-1.56531 -4.86398,8.92036 z"
     inkscape:transform-center-x="1.3925942"
     inkscape:transform-center-y="-0.071780344"
     transform="translate(7.5544255,13.196338)" /></svg>
