<svg xmlns="http://www.w3.org/2000/svg" xmlns:xlink="http://www.w3.org/1999/xlink" xml:space="preserve" width="1024" height="1024"><defs><radialGradient xlink:href="#a" id="c" cx="744.249" cy="340.676" r="59.608" fx="744.249" fy="340.676" gradientTransform="matrix(.96225 .03775 -.0432 1.10127 47.053 -65.283)" gradientUnits="userSpaceOnUse"/><linearGradient id="a"><stop offset="0" stop-color="#fefd22"/><stop offset=".671" stop-color="#ff0" stop-opacity="0"/></linearGradient><path id="b" d="m 483,600 c 0,34 58,34 58,0 v -86 c 0,-34 -58,-34 -58,0 z"/></defs><g fill="#fff" stroke="#fff" transform="translate(16.091 15.404)scale(.95245)"><g transform="translate(241.817 492.17)scale(.5069)"><path d="m 105,673 v 33 q 407,354 814,0 v -33 z"/><path d="m 105,673 152,14 q 12,1 15,14 l 4,67 132,10 8,-61 q 2,-11 15,-15 h 162 q 13,4 15,15 l 8,61 132,-10 4,-67 q 3,-13 15,-14 L 919,673 V 427 q 30,-39 56,-81 -35,-59 -83,-108 -43,20 -82,47 -40,-37 -88,-64 7,-51 8,-102 -59,-28 -123,-42 -26,43 -46,89 -49,-7 -98,0 -20,-46 -46,-89 -64,14 -123,42 1,51 8,102 -48,27 -88,64 -39,-27 -82,-47 -48,49 -83,108 26,42 56,81 z m 0,33 v 39 c 0,276 813,276 814,0 v -39 l -134,12 -5,69 q -2,10 -14,13 l -162,11 q -12,0 -16,-11 L 578,735 H 446 l -10,65 q -4,11 -16,11 L 258,800 q -12,-3 -14,-13 l -5,-69 z"/><use xlink:href="#b"/><circle cx="725" cy="526" r="90"/><circle cx="299" cy="526" r="90"/></g><g transform="translate(251.467 493.7)scale(.5069)"><circle cx="304.866" cy="536.269" r="60"/><circle cx="729.806" cy="536.269" r="60"/></g><ellipse cx="505.32" cy="879.654" stroke-linecap="round" stroke-width="11.96" paint-order="stroke fill markers" rx="94.665" ry="4.328"/><g stroke-linecap="round" stroke-width="6" paint-order="stroke fill markers"><path d="m 583.67459,312.6635 42.73429,11.90068 -2.33861,15.90993 17.67219,-24.34418 -61.26183,-38.24164 -74.37929,44.33988 -62.53029,146.22614 c 0,0 -32.99736,6.76175 -53.28262,12.98256 -20.28526,6.22082 -55.17591,19.74432 -55.17591,19.74432 0,0 26.25837,47.92815 180.67406,54.09403 140.62214,-4.07895 182.14931,-32.88431 197.89803,-52.30164 -41.1478,-17.5026 -72.30703,-25.51563 -111.34758,-33.16692 L 556.62758,358.37295 Z" transform="translate(-832.919 -657.286)scale(2.55921)"/><path d="m 442.15075,466.1904 c 0,0 45.54001,20.1616 82.83401,20.54411 37.294,0.3825 79.17803,-17.97762 79.17803,-17.97762 -76.09574,18.8503 -82.41137,17.46894 -162.01204,-2.56649 z" transform="translate(-832.919 -657.286)scale(2.55921)"/><path d="m 581.15592,279.96552 c 0,0 -43.54857,48.41293 -53.68489,48.03042 -10.13632,-0.3825 -20.27264,-8.41505 -20.27264,-8.41505 0,0 14.1526,22.56765 15.30011,35.76399 1.14751,13.19633 -0.57375,123.16582 -0.57375,123.16582 18.50613,3.40297 77.67387,-8.86346 78.37244,-12.14512 0.70904,-3.33084 -44.90347,-100.94237 -44.90347,-100.94237 l 28.18383,-45.24611 38.14473,9.57311 -1.00935,17.16844 22.7909,-30.80137 z" transform="translate(-832.919 -657.286)scale(2.55921)"/><path d="m 603.95985,470.3476 c -8.93962,6.92006 -52.29572,35.26465 -99.26254,28.53459 -51.84415,-7.42894 -71.14386,-29.24262 -74.19334,-27.58795 -3.21813,2.54196 33.20411,22.64409 48.09296,29.48125 23.71617,10.89078 36.0037,15.90449 51.78145,21.65683 16.33785,6.26079 21.57465,11.15642 20.8398,17.29087 -1.36175,11.36776 -34.39766,17.98487 -123.90067,2.31307 -60.87875,-10.65975 -90.49617,-41.83079 -91.79929,-40.5846 0.28934,2.2593 13.10206,16.52423 45.27095,30.18063 35.45835,15.05284 98.64647,22.54355 134.86218,23.77817 33.45801,0.40571 90.59217,-6.5825 105.88906,-9.60169 57.47607,-11.34423 90.08174,-36.72255 91.68938,-42.73428 -40.10691,-17.41967 -75.55133,-27.00194 -109.26994,-32.72689 z" transform="translate(-832.919 -657.286)scale(2.55921)"/><path stroke-width="15.355" d="m 365.38848,572.93727 32.30383,-5.87344 10.76796,-36.70889 12.23629,37.68782 32.30384,4.89451 -28.38822,16.64137 13.70467,35.73002 -30.34603,-20.06755 -29.36714,19.57808 11.2574,-32.30383 z" transform="translate(-1.66 -86.576)"/><path stroke-width="11.637" d="m 418.23801,398.44794 24.4822,-4.45132 8.16075,-27.82068 9.27356,28.56258 24.48221,3.70942 -21.51467,12.61205 10.3864,27.07882 -22.99844,-15.20866 -22.25657,14.8377 8.53169,-24.4822 z" transform="translate(-1.66 -86.576)"/><path stroke-width="9.14" d="m439.56034 789.13268 19.26778-3.48907 6.42261-21.80664 7.2984 22.38816 19.26779 2.90755-16.9323 9.88567 8.17422 21.22515-18.10005-11.92098-17.51618 11.63021 6.71454-19.18984zM316.72477 734.04019l19.26778-3.48907 6.42261-21.80664 7.2984 22.38816 19.26779 2.90755-16.9323 9.88567 8.17422 21.22515-18.10005-11.92098-17.51618 11.63021 6.71454-19.18984zM118.29479 718.64679l19.26778-3.48907 6.42261-21.80664 7.2984 22.38816 19.26779 2.90755-16.9323 9.88567 8.17422 21.22515-18.10005-11.92098-17.51618 11.63021 6.71454-19.18984zM221.49789 759.55848l19.26778-3.48907 6.42261-21.80664 7.2984 22.38816 19.26779 2.90755-16.9323 9.88567 8.17422 21.22515-18.10005-11.92098-17.51618 11.63021 6.71454-19.18984zM222.69028 675.34171l19.26778-3.48907 6.42261-21.80664 7.2984 22.38816 19.26779 2.90755-16.9323 9.88567 8.17422 21.22515-18.10005-11.92098-17.51618 11.63021 6.71454-19.18984z" transform="translate(-1.66 -86.576)"/><path stroke-width="15.355" d="m 525.83557,504.47825 32.30383,-5.87344 10.76796,-36.70889 12.23629,37.68782 32.30384,4.89451 -28.38822,16.64137 13.70467,35.73002 -30.34603,-20.06755 -29.36714,19.57808 11.2574,-32.30383 z" transform="translate(-1.66 -86.576)"/><path stroke-width="7.237" d="m 715.67619,215.16276 15.22393,-2.76799 5.07465,-17.29992 5.76663,17.76126 15.22394,2.30665 -13.37861,7.84263 6.45864,16.8386 -14.30127,-9.4573 -13.83994,9.22662 5.30531,-15.22392 z" transform="translate(-1.66 -86.576)"/><path stroke-width="9.159" d="m556.90812 272.01368 19.26779-3.50324 6.4226-21.89521 7.2984 22.47909 19.26779 2.91936-16.9323 9.92583 8.17422 21.31136-18.10004-11.9694-17.51619 11.67745 6.71454-19.26779zM710.68522 686.079l19.26779-3.50324 6.4226-21.89521 7.2984 22.47909 19.26779 2.91936-16.9323 9.92583 8.17422 21.31136-18.10004-11.9694-17.51619 11.67745 6.71454-19.26779zM829.02332 722.63179l19.26779-3.50324 6.4226-21.89521 7.2984 22.47909 19.26779 2.91936-16.9323 9.92583 8.17422 21.31136-18.10004-11.9694-17.51619 11.67745 6.71454-19.26779zM682.66589 778.67342l19.26779-3.50324 6.4226-21.89521 7.2984 22.47909 19.26779 2.91936-16.9323 9.92583 8.17422 21.31136-18.10004-11.9694-17.51619 11.67745 6.71454-19.26779zM598.76134 733.25563l19.26779-3.50324 6.4226-21.89521 7.2984 22.47909 19.26779 2.91936-16.9323 9.92583 8.17422 21.31136-18.10004-11.9694-17.51619 11.67745 6.71454-19.26779zM477.61564 726.41858l19.26779-3.50324 6.4226-21.89521 7.2984 22.47909 19.26779 2.91936-16.9323 9.92583 8.17422 21.31136-18.10004-11.9694-17.51619 11.67745 6.71454-19.26779z" transform="translate(-1.66 -86.576)"/></g></g><g transform="translate(25.942 28.28)scale(.93254)"><g fill="#fff" transform="translate(241.817 492.17)scale(.5069)"><path fill="#dd5185" d="m 105,673 v 33 q 407,354 814,0 v -33 z"/><path fill="#dd5185" d="m 105,673 152,14 q 12,1 15,14 l 4,67 132,10 8,-61 q 2,-11 15,-15 h 162 q 13,4 15,15 l 8,61 132,-10 4,-67 q 3,-13 15,-14 L 919,673 V 427 q 30,-39 56,-81 -35,-59 -83,-108 -43,20 -82,47 -40,-37 -88,-64 7,-51 8,-102 -59,-28 -123,-42 -26,43 -46,89 -49,-7 -98,0 -20,-46 -46,-89 -64,14 -123,42 1,51 8,102 -48,27 -88,64 -39,-27 -82,-47 -48,49 -83,108 26,42 56,81 z m 0,33 v 39 c 0,276 813,276 814,0 v -39 l -134,12 -5,69 q -2,10 -14,13 l -162,11 q -12,0 -16,-11 L 578,735 H 446 l -10,65 q -4,11 -16,11 L 258,800 q -12,-3 -14,-13 l -5,-69 z"/><use xlink:href="#b"/><circle cx="725" cy="526" r="90"/><circle cx="299" cy="526" r="90"/></g><g fill="#414042" transform="translate(251.467 493.7)scale(.5069)"><circle cx="304.866" cy="536.269" r="60"/><circle cx="729.806" cy="536.269" r="60"/></g><ellipse cx="505.32" cy="879.654" fill="#fff" paint-order="stroke fill markers" rx="94.665" ry="4.328"/><g stroke="#1e1e1e" stroke-linecap="round" stroke-width="6" paint-order="stroke fill markers"><path fill="#646464" d="m 583.67459,312.6635 42.73429,11.90068 -2.33861,15.90993 20.20464,-27.38311 -63.03455,-37.48191 -74.37929,44.08663 -63.29002,148.75859 c 0,0 -32.99736,6.76175 -53.28262,12.98256 -20.28526,6.22082 -55.17591,19.74432 -55.17591,19.74432 0,0 26.25837,47.92815 180.67406,54.09403 140.62214,-4.07895 182.14931,-32.88431 197.89803,-52.30164 -41.1478,-17.5026 -72.30703,-25.51563 -111.34758,-33.16692 L 556.62758,358.37295 Z" transform="translate(-832.919 -657.286)scale(2.55921)"/><path fill="#1e1e1e" d="m 442.15075,466.1904 c 0,0 45.54001,20.1616 82.83401,20.54411 37.294,0.3825 79.17803,-17.97762 79.17803,-17.97762 -76.09574,18.8503 -82.41137,17.46894 -162.01204,-2.56649 z" transform="translate(-832.919 -657.286)scale(2.55921)"/><path fill="#1e1e1e" d="m 582.1689,276.16685 c 0,0 -44.56155,52.2116 -54.69787,51.82909 -10.13632,-0.3825 -20.27264,-8.41505 -20.27264,-8.41505 0,0 14.1526,22.56765 15.30011,35.76399 1.14751,13.19633 -0.57375,123.16582 -0.57375,123.16582 18.50613,3.40297 77.67387,-8.86346 78.37244,-12.14512 0.70904,-3.33084 -44.90347,-109.29944 -44.90347,-109.29944 l 29.07019,-42.84029 41.31028,11.09258 -1.76908,15.39573 20.5117,-27.63582 z" transform="translate(-832.919 -657.286)scale(2.55921)"/><path fill="#1e1e1e" d="m 603.95985,470.3476 c -8.93962,6.92006 -52.29572,35.26465 -99.26254,28.53459 -51.84415,-7.42894 -71.14386,-29.24262 -74.19334,-27.58795 -3.21813,2.54196 33.20411,22.64409 48.09296,29.48125 23.71617,10.89078 36.0037,15.90449 51.78145,21.65683 16.33785,6.26079 21.57465,11.15642 20.8398,17.29087 -1.36175,11.36776 -34.39766,17.98487 -123.90067,2.31307 -60.87875,-10.65975 -90.49617,-41.83079 -91.79929,-40.5846 0.28934,2.2593 13.10206,16.52423 45.27095,30.18063 35.45835,15.05284 98.64647,22.54355 134.86218,23.77817 33.45801,0.40571 90.59217,-6.5825 105.88906,-9.60169 57.47607,-11.34423 90.08174,-36.72255 91.68938,-42.73428 -40.10691,-17.41967 -75.55133,-27.00194 -109.26994,-32.72689 z" transform="translate(-832.919 -657.286)scale(2.55921)"/><path fill="#fdff1e" stroke="none" d="m365.38848 572.93727 32.30383-5.87344 10.76796-36.70889 12.23629 37.68782 32.30384 4.89451-28.38822 16.64137 13.70467 35.73002-30.34603-20.06755-29.36714 19.57808 11.2574-32.30383zM418.23801 398.44794l24.4822-4.45132 8.16075-27.82068 9.27356 28.56258 24.48221 3.70942-21.51467 12.61205 10.3864 27.07882-22.99844-15.20866-22.25657 14.8377 8.53169-24.4822z" transform="translate(-1.66 -86.576)"/><path fill="#ff0" stroke="url(#c)" stroke-linecap="butt" stroke-width="45" d="m 715.90348,329.31295 24.4822,-4.45132 8.16075,-27.82068 9.27356,28.56258 24.48221,3.70942 -21.51467,12.61205 10.3864,27.07882 -22.99844,-15.20866 -22.25657,14.8377 8.53169,-24.4822 z" transform="translate(-1.66 -86.576)"/><path fill="#fdff1e" stroke="none" d="m439.56034 789.13268 19.26778-3.48907 6.42261-21.80664 7.2984 22.38816 19.26779 2.90755-16.9323 9.88567 8.17422 21.22515-18.10005-11.92098-17.51618 11.63021 6.71454-19.18984zM316.72477 734.04019l19.26778-3.48907 6.42261-21.80664 7.2984 22.38816 19.26779 2.90755-16.9323 9.88567 8.17422 21.22515-18.10005-11.92098-17.51618 11.63021 6.71454-19.18984zM118.29479 718.64679l19.26778-3.48907 6.42261-21.80664 7.2984 22.38816 19.26779 2.90755-16.9323 9.88567 8.17422 21.22515-18.10005-11.92098-17.51618 11.63021 6.71454-19.18984zM221.49789 759.55848l19.26778-3.48907 6.42261-21.80664 7.2984 22.38816 19.26779 2.90755-16.9323 9.88567 8.17422 21.22515-18.10005-11.92098-17.51618 11.63021 6.71454-19.18984zM222.69028 675.34171l19.26778-3.48907 6.42261-21.80664 7.2984 22.38816 19.26779 2.90755-16.9323 9.88567 8.17422 21.22515-18.10005-11.92098-17.51618 11.63021 6.71454-19.18984z" transform="translate(-1.66 -86.576)"/><path fill="#7d7e00" stroke="none" d="m525.83557 504.47825 32.30383-5.87344 10.76796-36.70889 12.23629 37.68782 32.30384 4.89451-28.38822 16.64137 13.70467 35.73002-30.34603-20.06755-29.36714 19.57808 11.2574-32.30383zM715.67619 215.16276l15.22393-2.76799 5.07465-17.29992 5.76663 17.76126 15.22394 2.30665-13.37861 7.84263 6.45864 16.8386-14.30127-9.4573-13.83994 9.22662 5.30531-15.22392zM556.90812 272.01368l19.26779-3.50324 6.4226-21.89521 7.2984 22.47909 19.26779 2.91936-16.9323 9.92583 8.17422 21.31136-18.10004-11.9694-17.51619 11.67745 6.71454-19.26779zM710.68522 686.079l19.26779-3.50324 6.4226-21.89521 7.2984 22.47909 19.26779 2.91936-16.9323 9.92583 8.17422 21.31136-18.10004-11.9694-17.51619 11.67745 6.71454-19.26779zM829.02332 722.63179l19.26779-3.50324 6.4226-21.89521 7.2984 22.47909 19.26779 2.91936-16.9323 9.92583 8.17422 21.31136-18.10004-11.9694-17.51619 11.67745 6.71454-19.26779zM682.66589 778.67342l19.26779-3.50324 6.4226-21.89521 7.2984 22.47909 19.26779 2.91936-16.9323 9.92583 8.17422 21.31136-18.10004-11.9694-17.51619 11.67745 6.71454-19.26779zM598.76134 733.25563l19.26779-3.50324 6.4226-21.89521 7.2984 22.47909 19.26779 2.91936-16.9323 9.92583 8.17422 21.31136-18.10004-11.9694-17.51619 11.67745 6.71454-19.26779zM477.61564 726.41858l19.26779-3.50324 6.4226-21.89521 7.2984 22.47909 19.26779 2.91936-16.9323 9.92583 8.17422 21.31136-18.10004-11.9694-17.51619 11.67745 6.71454-19.26779z" transform="translate(-1.66 -86.576)"/></g></g></svg>